<svg xmlns="http://www.w3.org/2000/svg" width="85" height="178" viewBox="0 0 85 178" fill="none"><path d="M0.222725 93.0892C0.380318 92.9773 0.609192 92.9418 0.787415 92.9934C1.00504 93.051 1.20454 93.101 1.39277 93.1483L1.4847 93.1714C1.94872 93.2881 2.34956 93.3881 2.74666 93.5253C9.02024 95.6687 13.9593 99.341 17.8465 104.751C18.8065 106.088 19.55 107.478 20.1422 108.864C19.171 104.202 18.9459 102.386 18.7739 97.1707C18.7658 96.9518 18.7658 96.7292 18.7658 96.5082C18.7658 95.9048 18.7658 95.3348 18.6126 94.8148C18.4287 94.1985 18.0591 93.5839 17.7014 92.9891C17.6008 92.8208 17.5001 92.6525 17.4169 92.5046C17.3881 92.4756 17.295 92.4267 17.2587 92.4218C15.4646 92.1863 13.878 91.5313 12.4072 90.4198C10.9251 89.2943 9.70627 87.9165 8.78386 86.3237C5.47322 80.615 3.81665 74.305 3.85855 67.5713C3.8623 66.9217 3.9511 66.2893 4.04865 65.6015C4.09305 65.2934 4.13808 64.9782 4.1756 64.6518C4.19686 64.4728 4.32507 64.3136 4.5108 64.2362C4.69403 64.1598 4.9154 64.1652 5.1005 64.2614C5.21244 64.3217 5.30812 64.3706 5.39505 64.4141C5.56327 64.5002 5.69147 64.5674 5.81279 64.6427C8.6369 66.3834 11.1277 68.5505 13.217 71.0823C16.6265 75.2203 18.6095 79.8992 19.1435 85.0466C19.1967 84.4728 19.2505 83.899 19.3042 83.3252L19.323 83.1171C19.5325 80.8677 19.7489 78.5414 19.9252 76.2538C19.9696 75.6746 20.0991 75.1111 20.2241 74.5658C20.4655 73.5177 20.6938 72.5277 20.3286 71.4904C20.2454 71.2559 20.1754 71.0199 20.1053 70.7843C19.9327 70.2009 19.0991 69.3023 17.819 68.3198L17.7709 68.2827C17.2987 67.9386 14.8736 66.0306 13.4978 62.2567C12.1014 58.4225 12.2071 54.4163 12.284 51.4909L12.2859 51.4129C12.3884 47.3916 12.8937 44.3614 13.9243 41.5861C14.0575 41.2312 14.2157 40.8811 14.3833 40.5133C14.4702 40.3218 14.559 40.1239 14.6503 39.9169C14.7254 39.7416 14.9055 39.6142 15.1162 39.584L15.2194 39.576C15.402 39.576 15.5727 39.6464 15.6884 39.768L16.6896 40.8171C21.4899 45.8515 23.8481 51.756 23.7005 58.3671C23.6749 59.5314 23.5735 60.7257 23.3941 61.9588C24.6141 58.3381 26.045 54.8137 27.6721 51.4232C27.7059 51.349 27.7278 51.257 27.7303 51.179L27.7416 50.7155C27.7584 50.0465 27.7759 49.3544 27.7428 48.6736C27.7378 48.5607 27.6528 48.358 27.4758 48.1585C27.2244 47.8729 26.9455 47.5938 26.6566 47.3035C26.1644 46.8109 25.656 46.3022 25.2533 45.7214C23.9563 43.8532 23.3472 41.6463 23.3372 38.7753C23.3197 35.3955 23.9256 31.8388 25.2464 27.5815C25.968 25.2589 27.0574 22.2416 29.0861 19.5061C29.2237 19.3221 29.3775 19.149 29.5413 18.9656C29.6151 18.8844 29.6927 18.7978 29.7715 18.7048C29.8865 18.572 30.0454 18.4945 30.3018 18.4945C30.5063 18.5075 30.6889 18.6075 30.7908 18.7629C33.3372 22.7148 34.6055 26.9367 34.6655 31.67C34.7168 35.6165 34.0001 39.0124 33.1015 41.6963C35.3884 38.1036 37.9299 34.6324 40.6846 31.3398L40.7477 31.265C40.8103 31.1935 40.8365 31.1586 40.8322 31.1833C41.0054 30.118 41.1254 29.2657 41.2086 28.5236C41.2067 28.5123 41.1905 28.4499 41.0617 28.2649C40.8797 27.9982 40.6802 27.7369 40.4682 27.4605C40.043 26.9044 39.604 26.329 39.3225 25.6848C38.4733 23.7403 38.2826 21.535 38.741 18.9452C39.7472 13.2133 42.6857 8.05196 47.7223 3.16542C48.2408 2.6637 48.8136 2.22006 49.4196 1.75114L49.5872 1.62046C49.8242 1.43602 50.0674 1.24727 50.3132 1.04776C50.4695 0.919775 50.6934 0.871916 50.9104 0.926767C51.1155 0.982693 51.2737 1.12896 51.3225 1.31072L51.4326 1.72586C51.5076 2.00119 51.5658 2.21844 51.6089 2.43677C52.2868 5.91602 52.2374 9.64263 51.457 13.8306C50.6828 17.9842 49.14 21.5667 46.773 24.6787C50.3226 21.0822 53.7752 18.0622 57.3835 15.3858C57.3997 15.3675 57.4235 15.3121 57.4254 15.2982C57.1433 13.209 57.7424 11.2408 59.2583 9.28126C61.2488 6.70597 64.0148 4.74318 67.4792 3.44828C69.5523 2.67499 71.7004 1.99044 73.8035 1.31986C74.8109 0.998287 75.8184 0.677788 76.8559 0.334165C77.8983 -0.0223638 78.3442 -0.0858186 78.5862 0.106696C78.8976 0.356212 78.8226 0.569163 78.6869 0.956343L78.6431 1.08271C77.3718 4.76523 75.6846 7.67769 73.4839 9.98625C69.4441 14.2286 64.7195 16.3839 59.0476 16.5742C58.8487 16.5845 58.6911 16.6318 58.6267 16.6748C57.8281 17.1889 57.2403 17.6003 56.7206 18.0079C55.0772 19.2996 53.4587 20.6757 51.8753 22.1249C54.2304 20.8666 57.109 20.2987 60.3508 20.4396C62.1249 20.5165 63.886 20.7402 65.5888 20.9564L65.6538 20.965C66.1573 21.0284 66.6582 21.0913 67.1578 21.1521C68.2522 21.2796 69.3553 21.4463 70.3296 21.5925C70.7242 21.6533 71.6666 21.8377 71.8836 22.2308C71.9587 22.3653 71.9524 22.5126 71.8674 22.6465C71.7923 22.7632 71.7098 22.8729 71.6197 22.9729C68.8075 26.1107 65.5994 28.1773 61.8123 29.2899C57.1946 30.6536 52.9535 30.5412 49.1425 28.9371C48.5597 28.6613 47.8568 28.5214 47.0538 28.5214C46.4479 28.5214 45.9932 28.6037 45.8425 28.6333C45.6168 28.6656 45.3103 28.7742 45.2478 28.8441C42.8777 31.5237 40.6283 34.3856 38.5277 37.3922C40.3025 35.908 42.6169 34.9072 45.77 34.2555C48.5334 33.6892 51.3588 33.5677 54.0904 33.4494L55.0053 33.4096C55.862 33.372 56.7187 33.3252 57.6011 33.2773L59.0807 33.1988C59.2721 33.1988 59.454 33.2784 59.5653 33.4107C59.6885 33.5532 59.718 33.7382 59.6454 33.9043C59.586 34.0431 59.4778 34.2877 59.4221 34.3695C56.5411 38.5134 53.1579 41.3796 49.0806 43.1327C45.0946 44.8449 41.4932 45.2976 37.8605 44.5507C37.4402 44.4636 36.9531 44.4174 36.4497 44.4174C34.9044 44.4174 33.8269 44.8228 33.6005 45.1982C31.6019 48.7436 29.8184 52.4277 28.28 56.1855C29.8934 54.2727 32.1497 52.7191 35.0063 51.5571C37.8442 50.4052 40.799 49.3523 43.7063 48.316C44.9558 47.8719 46.2102 47.4261 47.4591 46.9701C47.6448 46.9001 47.8643 46.9147 48.0375 47.0131C48.2076 47.1104 48.3089 47.2728 48.3089 47.4476C48.3089 47.7831 44.1628 57.6783 38.1412 61.5775C35.6848 63.1682 32.6594 64.8046 28.8441 64.8815C27.7022 64.9014 26.5215 65.0401 25.6297 65.9118C25.4934 66.0505 25.3127 66.1586 25.1157 66.2161C24.8111 66.3022 24.7273 66.4624 24.5773 67.0088C23.3416 71.47 22.4417 76.0683 21.8876 80.7376C22.0552 80.2638 22.2497 79.7852 22.4729 79.3007C23.8206 76.3619 26.0887 73.7904 29.6107 71.2076C31.4262 69.8707 33.3272 68.5763 35.1658 67.3239L35.2533 67.2648C36.0907 66.6942 36.9262 66.1258 37.7591 65.5504C37.9311 65.4316 38.0987 65.309 38.2932 65.1659L38.8129 64.783C38.9949 64.6508 39.2656 64.6233 39.4783 64.7148C39.6965 64.8099 39.8272 65.0067 39.8103 65.217C39.7847 65.5327 39.7641 65.8311 39.7447 66.1177L39.7346 66.2516C39.6934 66.8416 39.6546 67.3981 39.5852 67.9477C38.9336 73.2989 37.0831 77.7665 33.9282 81.6055C31.9752 83.9786 29.1736 86.8792 24.8049 88.251C23.7418 88.5866 22.9707 89.0947 22.1446 90.0068C21.3654 90.8607 21.2203 91.641 21.2378 92.6229C21.3123 96.7362 21.6531 100.817 22.254 104.813C22.3947 103.701 22.6924 102.556 23.1496 101.366C24.0957 98.9033 25.5703 96.5087 27.6584 94.0458C29.4607 91.9131 31.3361 89.7729 33.1496 87.702L33.2703 87.5638C33.9895 86.7437 34.708 85.9226 35.4078 85.1192C35.5391 84.9541 35.7286 84.8949 35.8381 84.8621C35.9931 84.7971 36.1783 84.7906 36.3427 84.8508C36.5041 84.91 36.6279 85.0267 36.6823 85.1697L36.7036 85.2256C36.7336 85.3009 36.7573 85.3676 36.7698 85.4343C38.0205 91.8475 37.2532 97.5934 34.4247 103.002C33.0433 105.647 31.1904 108.641 27.9235 110.795C26.4321 111.779 25.2545 113.159 24.6079 114.68C24.4709 115.007 24.4759 115.149 24.4916 115.204C25.8742 120.129 27.6803 124.879 29.8759 129.374C29.3106 127.005 29.3494 124.516 29.9947 121.938C30.9109 118.283 32.4855 114.742 33.8901 111.709L34.3109 110.801C34.9694 109.379 35.6323 107.947 36.3171 106.462C36.404 106.272 36.6135 106.143 36.893 106.131C37.1132 106.131 37.3158 106.239 37.4208 106.414L37.6416 106.771C37.7385 106.928 37.8292 107.073 37.9067 107.224C40.7321 112.706 41.6864 118.325 40.7415 123.926C40.0661 127.932 38.9217 130.799 37.0306 133.226C36.0519 134.48 35.122 135.877 34.9532 137.595C34.9131 138.002 34.9319 138.282 35.1427 138.601C37.5278 142.192 40.2018 145.582 43.1304 148.731C43.1191 148.714 43.1085 148.696 43.0972 148.679C40.9904 145.368 40.9266 141.788 41.1417 138.723C41.3274 136.095 41.6776 133.47 42.0147 130.933L42.0341 130.787C42.1698 129.77 42.3049 128.754 42.4281 127.736C42.4994 127.159 42.5788 126.582 42.6607 125.997L42.7689 125.204C42.7927 125.029 42.9171 124.877 43.0959 124.801C43.4286 124.651 43.9671 124.882 44.5486 125.474C48.5453 129.538 51.0255 134.132 51.921 139.127C52.8496 144.306 52.3462 148.738 50.3801 152.677C50.3276 152.782 50.3288 152.996 50.3295 153.067L50.4352 155.333C50.4508 155.496 50.5508 155.68 50.6334 155.748C54.6244 159.053 59.0182 161.927 63.7334 164.318C61.5015 162.583 59.8968 160.32 58.8568 157.451C57.7043 154.272 57.1127 150.964 56.5393 147.755L56.4892 147.47C56.286 146.343 56.074 145.218 55.8576 144.068L55.6131 142.768C55.5781 142.579 55.665 142.39 55.8357 142.276C56.0052 142.16 56.2503 142.132 56.4455 142.204L56.6587 142.28C56.8863 142.36 57.0846 142.432 57.2715 142.514C66.1854 146.342 72.0531 155.271 71.2239 163.744C71.0938 165.071 71.2352 166.317 71.6566 167.552C71.696 167.664 71.8224 167.787 71.8736 167.807C76.1073 169.342 80.1327 170.462 84.1832 171.231C84.3914 171.273 84.5565 171.401 84.624 171.573C84.6922 171.747 84.6509 171.936 84.5121 172.078C84.0718 172.526 83.6885 173.009 83.3733 173.514C83.2439 173.72 82.9356 173.826 82.7048 173.774C79.4048 173.127 76.1911 172.289 73.15 171.281C72.9042 171.196 72.7166 171.156 72.5409 171.18C71.8643 171.258 71.1495 171.377 70.3559 171.546C70.192 171.581 70.0563 171.646 70.0538 171.64C68.3204 174.612 65.3412 176.505 60.943 177.426C59.9862 177.623 58.9994 177.769 58.0101 177.858C56.9745 177.952 55.8195 178 54.5781 178C52.8584 178 51.6321 177.909 51.6171 177.908C47.8049 177.541 44.5493 176.803 41.6658 175.652C40.4826 175.18 39.1343 174.545 38.0981 173.411C37.8998 173.194 37.933 172.88 38.1738 172.698C41.1029 170.475 44.0853 168.86 47.2927 167.761C52.0448 166.137 56.3735 165.697 60.6166 166.399C61.2507 166.505 61.8698 166.638 62.4714 166.792C58.5022 164.751 54.702 162.354 51.113 159.622C51.0442 159.568 50.931 159.521 50.8429 159.507C50.2557 159.423 49.4758 159.32 48.6779 159.271C48.6041 159.271 48.5103 159.301 48.4997 159.305C46.3372 161.386 43.5512 162.397 39.9823 162.397C39.8003 162.397 39.6177 162.394 39.4357 162.389C35.5554 162.281 31.6544 161.364 27.8391 159.662C25.0663 158.418 22.1759 156.97 19.832 154.811C19.3124 154.33 18.8484 153.787 18.4388 153.308L18.3987 153.261C18.2174 153.05 18.0341 152.837 17.8459 152.627C17.7434 152.513 17.7002 152.367 17.7271 152.22C17.7559 152.078 17.8515 151.951 18.0147 151.86C18.056 151.841 19.0485 151.383 19.9546 151.081C26.0218 149.065 32.1472 148.859 37.9905 150.478C39.9035 151.007 41.7039 151.8 43.4568 152.897C40.2149 149.657 37.2132 146.104 34.4879 142.282C34.4585 142.242 34.381 142.133 34.356 142.113C34.1177 141.982 33.8738 141.858 33.6305 141.736C33.1947 141.516 32.7432 141.289 32.3192 141.018C31.9615 140.788 31.8608 140.782 31.4993 140.982C30.9878 141.268 30.3931 141.416 29.8746 141.533C26.8417 142.201 23.7843 141.868 20.4024 140.503C17.3131 139.257 14.938 137.289 12.8305 135.347C9.76504 132.515 7.76202 129.961 6.52631 127.306C6.26679 126.749 6.0817 126.173 5.88908 125.571C5.80967 125.318 5.72836 125.065 5.64206 124.817C5.54763 124.55 5.71272 124.268 6.01915 124.175L6.27305 124.158C7.52313 124.158 18.6745 124.316 25.197 129.758C26.6159 130.942 27.8879 132.2 29.0492 133.578C26.4689 128.879 24.2808 123.927 22.5173 118.787L22.4917 118.711C22.4704 118.648 22.4385 118.553 22.4173 118.527L20.7113 116.513C20.6475 116.432 20.64 116.432 20.5399 116.432C20.4955 116.432 20.4468 116.435 20.3911 116.438L20.0265 116.457C18.7571 116.524 18.0098 116.515 17.395 116.432C14.9661 116.102 12.7736 115.05 10.6931 113.216C5.82716 108.924 2.47776 103.57 0.454109 96.8497C0.237106 96.1296 0.176445 95.4026 0.111412 94.6314C0.0826416 94.2819 0.0507584 93.9216 0.00447845 93.5495C-0.0149078 93.3709 0.066391 93.2005 0.222725 93.0892Z" fill="#003876"></path></svg>